<svg width="110" height="80" viewBox="0 0 110 80" fill="none" xmlns="http://www.w3.org/2000/svg">
<path d="M54.7445 52.7001C37.4946 52.7001 22.9398 55.5188 22.9398 66.3975C22.9398 77.2807 37.5886 80.0004 54.7445 80.0004C71.9945 80.0004 86.5492 77.1817 86.5492 66.303C86.5492 55.4198 71.9004 52.7001 54.7445 52.7001Z" fill="#F45E5E"/>
<path opacity="0.4" d="M54.7435 42.3352C66.424 42.3352 75.7899 32.9154 75.7899 21.1676C75.7899 9.41534 66.424 3.05176e-05 54.7435 3.05176e-05C43.0629 3.05176e-05 33.697 9.41534 33.697 21.1676C33.697 32.9154 43.0629 42.3352 54.7435 42.3352Z" fill="#F45E5E"/>
<path opacity="0.4" d="M100.439 26.0962C103.46 14.2089 94.6005 3.53278 83.3184 3.53278C82.0917 3.53278 80.9187 3.66786 79.7726 3.8975C79.6204 3.93352 79.4503 4.01007 79.3607 4.14515C79.2577 4.31626 79.3339 4.5459 79.4458 4.69449C82.8349 9.47645 84.7824 15.2985 84.7824 21.5484C84.7824 27.5371 82.9961 33.1205 79.8621 37.7539C79.5398 38.2312 79.8263 38.8751 80.3949 38.9742C81.1829 39.1137 81.9887 39.1858 82.8125 39.2083C91.0278 39.4244 98.4015 34.1067 100.439 26.0962Z" fill="#F45E5E"/>
<path d="M109.047 54.0848C107.543 50.8608 103.912 48.6499 98.3916 47.5648C95.786 46.9254 88.7347 46.0248 82.1759 46.1464C82.0774 46.1599 82.0237 46.2274 82.0147 46.2725C82.0013 46.3355 82.0281 46.4436 82.158 46.5111C85.1889 48.0195 96.9053 54.5801 95.4323 68.4171C95.3696 69.016 95.8487 69.5338 96.4441 69.4438C99.3273 69.0295 106.746 67.4265 109.047 62.4329C110.318 59.7943 110.318 56.7279 109.047 54.0848Z" fill="#F45E5E"/>
<path opacity="0.4" d="M30.2253 3.89878C29.0836 3.66464 27.9062 3.53406 26.6795 3.53406C15.3974 3.53406 6.53738 14.2101 9.56384 26.0975C11.5964 34.1079 18.97 39.4257 27.1854 39.2096C28.0091 39.1871 28.8195 39.1105 29.603 38.9754C30.1715 38.8764 30.4581 38.2325 30.1357 37.7552C27.0018 33.1173 25.2155 27.5384 25.2155 21.5497C25.2155 15.2953 27.1675 9.47322 30.5566 4.69577C30.664 4.54718 30.7446 4.31754 30.6371 4.14644C30.5476 4.00685 30.382 3.93481 30.2253 3.89878Z" fill="#F45E5E"/>
<path d="M11.6079 47.5635C6.08774 48.6487 2.46136 50.8595 0.957084 54.0835C-0.318865 56.7267 -0.318865 59.793 0.957084 62.4362C3.25827 67.4253 10.6767 69.0327 13.5599 69.4425C14.1553 69.5326 14.6299 69.0192 14.5672 68.4159C13.0943 54.5833 24.8106 48.0228 27.846 46.5143C27.9714 46.4423 27.9982 46.3387 27.9848 46.2712C27.9759 46.2262 27.9266 46.1586 27.8281 46.1496C21.2648 46.0235 14.218 46.9241 11.6079 47.5635Z" fill="#F45E5E"/>
</svg>
