<svg width="90" height="100" viewBox="0 0 90 100" fill="none" xmlns="http://www.w3.org/2000/svg">
<path opacity="0.4" fill-rule="evenodd" clip-rule="evenodd" d="M29.736 15.4079H60.4493V8.25677H29.736V15.4079ZM22.7483 8.55086V8.58646C20.3507 8.80451 17.9789 9.28065 15.6715 9.9971V9.9704C15.6029 9.99925 15.5383 10.0215 15.4763 10.0428C15.3949 10.0707 15.318 10.0971 15.2426 10.135C15.0581 10.1795 14.878 10.2463 14.7064 10.3308C14.2003 10.4955 13.6942 10.6913 13.2182 10.8915C13.0916 10.9405 12.9651 10.9972 12.8386 11.054C12.7121 11.1107 12.5855 11.1674 12.459 11.2164C12.2853 11.2987 12.1041 11.3888 11.9229 11.4789C11.7417 11.569 11.5605 11.6592 11.3868 11.7415L10.529 12.2354C10.3704 12.3163 10.2236 12.4112 10.0738 12.508L10.0737 12.508C9.98455 12.5656 9.89429 12.624 9.79984 12.6804C8.50886 13.5126 7.31223 14.4871 6.23141 15.5951L6.16708 15.6619C6.02512 15.8274 5.88376 15.9879 5.74432 16.1463L5.74431 16.1463C5.50879 16.4139 5.27873 16.6752 5.06052 16.9435L4.99619 17.0058C1.4878 21.8473 -0.270678 27.8147 0.0338391 33.8622V35.7802H6.96054V33.8444C6.96054 25.4162 9.64544 20.1697 15.62 17.4819C17.9017 16.5163 20.3121 15.92 22.7654 15.7019H22.8298V8.58201L22.7483 8.55086ZM84.9881 16.9163L85.0181 16.9786C88.5222 21.8246 90.2721 27.7964 89.9633 33.8439V35.7796H83.0409V33.795C83.1867 30.2261 82.4705 26.675 80.9522 23.4666C79.4939 20.721 77.1607 18.5894 74.3428 17.4324C72.0997 16.4668 69.7236 15.8661 67.3003 15.6525V8.56812C69.6979 8.79062 72.0697 9.26232 74.3814 9.97876V9.94316C74.5113 10.0021 74.6104 10.0371 74.7806 10.0973L74.8103 10.1078C74.8893 10.1357 74.9629 10.1636 75.0357 10.1912C75.137 10.2296 75.2367 10.2674 75.3465 10.3036C75.8206 10.4592 76.2642 10.6426 76.7205 10.8313L76.8004 10.8643C77.011 10.9383 77.2094 11.03 77.3881 11.1126C77.446 11.1394 77.5018 11.1652 77.5553 11.1892C77.9327 11.3538 78.3187 11.5496 78.6275 11.7142C78.8335 11.8211 79.0341 11.9355 79.2223 12.0428C79.324 12.1007 79.422 12.1567 79.5154 12.2082C79.669 12.2931 79.8026 12.3839 79.9311 12.4712C80.0249 12.5349 80.116 12.5968 80.2102 12.6532C81.5054 13.4898 82.7149 14.4688 83.8086 15.5679L83.8472 15.6347C84.2504 16.0396 84.6321 16.4668 84.9881 16.9163Z" fill="#F45E5E"/>
<path d="M67.4985 3.58464V19.3423C67.4985 21.3277 65.8875 22.9358 63.8985 22.9358C61.9095 22.9358 60.2985 21.3277 60.2985 19.3423V3.62058C60.2805 1.63515 61.8825 0.0135606 63.8715 8.47839e-05C65.8605 -0.013391 67.485 1.58124 67.4985 3.56667V3.58464Z" fill="#F45E5E"/>
<path d="M29.7 3.64172V19.3604C29.7 21.3545 28.0871 22.9712 26.0978 22.9712C24.1085 22.9712 22.5 21.3545 22.5 19.3604V3.64172C22.5 1.64769 24.1085 0.0354004 26.0978 0.0354004C28.0871 0.0354004 29.7 1.64769 29.7 3.64172Z" fill="#F45E5E"/>
<path fill-rule="evenodd" clip-rule="evenodd" d="M0 74.5511V35.7799H90V74.5511C90 91.4582 80.5579 100 61.8455 100H28.1116C9.44206 100 0 91.4582 0 74.5511ZM20.2984 57.3339C20.2984 59.6796 22.1439 61.5828 24.4186 61.5828C26.7362 61.5828 28.5817 59.6354 28.5387 57.2896C28.5387 54.9439 26.6932 53.0407 24.4615 53.0407H24.4186C22.1439 53.0407 20.2984 54.9882 20.2984 57.3339ZM40.8554 57.3339C40.8554 59.6796 42.7438 61.5828 45.0185 61.5828C47.2931 61.5828 49.1386 59.6796 49.1386 57.2896C49.1386 54.9882 47.2931 53.085 45.0185 53.0407H44.9755C42.7009 53.085 40.8554 54.9882 40.8554 57.3339ZM65.5762 61.5826C63.3016 61.5826 61.4561 59.6794 61.4561 57.3337C61.4561 54.9879 63.2586 53.0848 65.5762 53.0848C67.8509 53.0848 69.6964 54.9879 69.6964 57.3337C69.6964 59.6794 67.8509 61.5826 65.5762 61.5826ZM65.5791 79.7294C63.3044 79.7294 61.4589 77.8262 61.416 75.4805C61.416 73.1347 63.2615 71.2316 65.5362 71.2316H65.5791C67.8538 71.2316 69.6993 73.1347 69.6993 75.4805C69.6993 77.8262 67.8538 79.7294 65.5791 79.7294ZM45.0185 79.7287C42.7438 79.7287 40.8554 77.8256 40.8554 75.4798C40.8554 73.1341 42.7009 71.2309 44.9755 71.1866H45.0185C47.2931 71.2309 49.0957 73.1341 49.1386 75.4355C49.1386 77.8256 47.2931 79.7287 45.0185 79.7287ZM24.4192 79.7287C22.1445 79.7287 20.299 77.8256 20.299 75.4798C20.2561 73.1341 22.1016 71.1866 24.4192 71.1866C26.6938 71.1866 28.5393 73.0898 28.5393 75.4355C28.5393 77.7813 26.6938 79.7287 24.4192 79.7287Z" fill="#F45E5E"/>
</svg>
