<svg width="70" height="100" viewBox="0 0 70 100" fill="none" xmlns="http://www.w3.org/2000/svg">
<path fill-rule="evenodd" clip-rule="evenodd" d="M17.6581 4.68386C28.5824 -1.66363 42.0102 -1.55268 52.8319 4.97447C63.5473 11.6346 70.0599 23.5209 69.9992 36.3072C69.7498 49.0097 62.7665 60.95 54.0374 70.1805C48.9992 75.532 43.3631 80.2641 37.2442 84.2802C36.6141 84.6446 35.9238 84.8885 35.2075 85C34.518 84.9706 33.8466 84.7669 33.2538 84.4072C23.9122 78.3728 15.7167 70.6702 9.06169 61.6698C3.49297 54.1568 0.329203 45.08 3.63356e-05 35.6721C-0.00719867 22.8612 6.73386 11.0313 17.6581 4.68386ZM23.9722 40.9739C25.8098 45.5042 30.1473 48.4592 34.9594 48.4592C38.1119 48.4819 41.1423 47.2191 43.3754 44.9524C45.6085 42.6856 46.8588 39.6032 46.8476 36.3919C46.8644 31.4902 43.9786 27.0616 39.5377 25.1739C35.0967 23.2862 29.9766 24.3117 26.5679 27.7717C23.1593 31.2317 22.1346 36.4436 23.9722 40.9739Z" fill="#F45E5E"/>
<ellipse opacity="0.4" cx="35.0001" cy="95" rx="25" ry="5" fill="#F45E5E"/>
</svg>
