<svg width="100" height="80" viewBox="0 0 100 80" fill="none" xmlns="http://www.w3.org/2000/svg">
<path opacity="0.4" d="M58.7524 28.5152V18.4159C56.7698 18.4159 55.1257 16.8188 55.1257 14.8929V2.86781C55.1257 1.26602 53.8201 0.00244141 52.176 0.00244141H18.9555C8.51064 0.00244141 0 8.26502 0 18.4159V30.5773C0 31.5214 0.386847 32.4139 1.06383 33.0716C1.74081 33.7245 2.65957 34.1003 3.62669 34.1003C7.30174 34.1003 10.1064 36.6368 10.1064 39.9719C10.1064 43.4526 7.25339 46.224 3.67505 46.2663C1.69246 46.2663 0 47.6285 0 49.6014V61.6312C0 71.7775 8.51064 79.9978 18.9072 79.9978H52.176C53.8201 79.9978 55.1257 78.7248 55.1257 77.1324V66.9815C55.1257 65.0133 56.7698 63.4585 58.7524 63.4585V54.3504C56.7698 54.3504 55.1257 52.7486 55.1257 50.8274V32.0381C55.1257 30.1122 56.7698 28.5152 58.7524 28.5152Z" fill="#F45E5E"/>
<path d="M89.8936 39.9742C89.8936 43.4502 92.795 46.2216 96.325 46.2686C98.3076 46.2686 100 47.6308 100 49.5567V61.6288C100 71.7797 91.5377 80 81.0929 80H65.3288C63.7331 80 62.3791 78.727 62.3791 77.1299V66.9837C62.3791 65.0109 60.7834 63.4607 58.7524 63.4607V54.3526C60.7834 54.3526 62.3791 52.7509 62.3791 50.8297V32.0404C62.3791 30.1098 60.7834 28.5174 58.7524 28.5174V18.4135C60.7834 18.4135 62.3791 16.8164 62.3791 14.8905V2.87006C62.3791 1.26828 63.7331 0 65.3288 0H81.0929C91.5377 0 100 8.2203 100 18.3665V30.2037C100 31.1432 99.6132 32.0404 98.9362 32.6933C98.2592 33.3509 97.3405 33.7267 96.3733 33.7267C92.795 33.7267 89.8936 36.5498 89.8936 39.9742Z" fill="#F45E5E"/>
</svg>
