<svg width="40" height="40" viewBox="0 0 40 40" fill="none" xmlns="http://www.w3.org/2000/svg">
<path opacity="0.4" d="M27.2337 3.33295H12.7837C7.13374 3.33295 3.33374 7.29961 3.33374 13.1996V26.8163C3.33374 32.6996 7.13374 36.6663 12.7837 36.6663H27.2337C32.8837 36.6663 36.6671 32.6996 36.6671 26.8163V13.1996C36.6671 7.29961 32.8837 3.33295 27.2337 3.33295Z" fill="#00AB8B"/>
<path d="M18.0222 25.4131C17.6489 25.4131 17.2755 25.2715 16.9905 24.9865L13.0355 21.0315C12.4655 20.4615 12.4655 19.5381 13.0355 18.9698C13.6055 18.3998 14.5272 18.3981 15.0972 18.9681L18.0222 21.8931L24.9022 15.0131C25.4722 14.4431 26.3939 14.4431 26.9639 15.0131C27.5339 15.5831 27.5339 16.5065 26.9639 17.0765L19.0539 24.9865C18.7689 25.2715 18.3955 25.4131 18.0222 25.4131Z" fill="#00AB8B"/>
</svg>
