<svg width="100" height="90" viewBox="0 0 100 90" fill="none" xmlns="http://www.w3.org/2000/svg">
<path opacity="0.4" d="M96.2499 52.3819C92.1449 52.3819 88.8049 49.0724 88.8049 45.005C88.8049 40.9325 92.1449 37.623 96.2499 37.623C97.2449 37.623 98.1999 37.2316 98.8999 36.538C99.6049 35.8395 99.9999 34.8932 99.9999 33.9073L99.9949 20.5208C99.9949 9.20511 90.6999 0 79.2799 0H20.7199C9.29988 0 0.00487793 9.20511 0.00487793 20.5208L-0.00012207 34.3383C-0.00012207 35.3242 0.394878 36.2705 1.09988 36.9691C1.79988 37.6627 2.75488 38.0541 3.74988 38.0541C7.99488 38.0541 11.1949 41.0415 11.1949 45.005C11.1949 49.0724 7.85488 52.3819 3.74988 52.3819C1.67988 52.3819 -0.00012207 54.0466 -0.00012207 56.0977V69.4743C-0.00012207 80.7899 9.28988 90 20.7149 90H79.2849C90.7099 90 99.9999 80.7899 99.9999 69.4743V56.0977C99.9999 54.0466 98.3199 52.3819 96.2499 52.3819Z" fill="#F45E5E"/>
<path d="M67.1535 42.9433L61.2585 48.6833L62.6535 56.7983C62.8935 58.2033 62.3285 59.5883 61.1735 60.4183C60.0285 61.2583 58.5335 61.3633 57.2735 60.6933L49.9985 56.8683L42.7085 60.6983C42.1685 60.9833 41.5785 61.1333 40.9935 61.1333C40.2285 61.1333 39.4735 60.8933 38.8235 60.4233C37.6735 59.5883 37.1085 58.2033 37.3485 56.7983L38.7385 48.6833L32.8435 42.9433C31.8235 41.9533 31.4685 40.4983 31.9085 39.1433C32.3535 37.7933 33.5035 36.8333 34.9085 36.6333L43.0385 35.4483L46.6835 28.0633C47.3185 26.7933 48.5885 26.0033 49.9985 26.0033H50.0085C51.4235 26.0083 52.6935 26.7983 53.3185 28.0683L56.9635 35.4483L65.1085 36.6383C66.4985 36.8333 67.6485 37.7933 68.0885 39.1433C68.5335 40.4983 68.1785 41.9533 67.1535 42.9433Z" fill="#F45E5E"/>
</svg>
