<svg width="100" height="75" viewBox="0 0 100 75" fill="none" xmlns="http://www.w3.org/2000/svg">
<path opacity="0.4" d="M96.6547 12.2126C94.5597 10.8928 91.9847 10.776 89.7896 11.8928L82.3796 15.6339C79.6395 17.0146 77.9395 19.8065 77.9395 22.9131V52.0806C77.9395 55.1872 79.6395 57.974 82.3796 59.3649L89.7846 63.1009C90.7896 63.6187 91.8647 63.8674 92.9397 63.8674C94.2297 63.8674 95.5097 63.5019 96.6547 62.7862C98.7497 61.4715 99.9997 59.1923 99.9997 56.6948V18.309C99.9997 15.8116 98.7497 13.5324 96.6547 12.2126Z" fill="#F45E5E"/>
<path d="M49.5255 75H20.5652C8.45508 75 0 66.6497 0 54.6954V20.3046C0 8.34518 8.45508 0 20.5652 0H49.5255C61.6356 0 70.0907 8.34518 70.0907 20.3046V54.6954C70.0907 66.6497 61.6356 75 49.5255 75Z" fill="#F45E5E"/>
</svg>
