<svg width="110" height="90" viewBox="0 0 110 90" fill="none" xmlns="http://www.w3.org/2000/svg">
<path d="M63.5233 17.2528C63.2646 14.8211 62.995 12.2981 62.332 9.78054C60.5262 3.75765 55.5239 4.79756e-05 50.1604 4.79756e-05C47.1687 -0.010688 43.3846 1.78222 41.2392 3.59661L23.4561 18.0848H14.1467C7.29547 18.0848 1.78643 23.222 0.746067 30.6352C-0.137967 37.7532 -0.353586 51.1893 0.746067 59.0212C1.70018 66.8531 6.96126 71.9151 14.1467 71.9151H23.4561L41.5842 86.6181C43.4439 88.1909 46.7267 89.9945 49.7453 89.9945C49.9394 89.9999 50.1119 89.9999 50.2844 89.9999C55.7503 89.9999 60.5639 86.1027 62.3698 80.0959C63.0543 77.5408 63.2915 75.1467 63.5233 72.833L63.7659 70.5409C64.693 63.1062 64.693 26.8454 63.7659 19.4644L63.5233 17.2528Z" fill="#F45E5E"/>
<path opacity="0.4" d="M98.5983 4.67677C97.8328 3.36161 95.806 3.88767 95.806 5.41218C97.2615 31.0605 97.186 57.4979 95.806 84.5955C95.806 86.1147 97.8328 86.6461 98.5983 85.3256C105.051 74.2621 109.999 60.3161 109.999 45.0012C109.999 29.6863 105.051 15.7456 98.5983 4.67677Z" fill="#F45E5E"/>
<path opacity="0.4" d="M74.2095 14.1235C75.3415 34.1354 75.2822 54.7485 74.2095 75.8823C74.2095 77.0686 75.7889 77.482 76.3872 76.4513C81.4165 67.8196 85.2815 56.9494 85.2815 45.0002C85.2815 33.0564 81.4165 22.1809 76.3872 13.5545C75.7889 12.5238 74.2095 12.9318 74.2095 14.1235Z" fill="#F45E5E"/>
</svg>
